<svg xmlns="http://www.w3.org/2000/svg" xmlns:xlink="http://www.w3.org/1999/xlink" width="500" zoomAndPan="magnify" viewBox="0 0 375 374.999991" height="500" preserveAspectRatio="xMidYMid meet" version="1.0"><defs><g/><clipPath id="id1"><path d="M 52.328125 135.167969 L 103 135.167969 L 103 188 L 52.328125 188 Z M 52.328125 135.167969 " clip-rule="nonzero"/></clipPath><clipPath id="id2"><path d="M 116 234 L 127 234 L 127 240.167969 L 116 240.167969 Z M 116 234 " clip-rule="nonzero"/></clipPath><clipPath id="id3"><path d="M 69 195 L 103 195 L 103 240.167969 L 69 240.167969 Z M 69 195 " clip-rule="nonzero"/></clipPath></defs><rect x="-37.5" width="450" fill="rgb(100%, 100%, 100%)" y="-37.499999" height="449.999989" fill-opacity="1"/><rect x="-37.5" width="450" fill="rgb(100%, 100%, 100%)" y="-37.499999" height="449.999989" fill-opacity="1"/><rect x="-37.5" width="450" fill="rgb(100%, 100%, 100%)" y="-37.499999" height="449.999989" fill-opacity="1"/><rect x="-37.5" width="450" fill="rgb(100%, 100%, 100%)" y="-37.499999" height="449.999989" fill-opacity="1"/><g clip-path="url(#id1)"><path fill="rgb(16.079712%, 67.059326%, 88.62915%)" d="M 102.085938 143.289062 C 101.257812 143.722656 100.320312 143.996094 99.351562 144.136719 C 98.378906 144.277344 97.386719 144.257812 96.414062 144.160156 C 94.457031 143.972656 92.59375 143.445312 90.828125 142.964844 C 89.945312 142.722656 89.082031 142.464844 88.25 142.273438 C 87.828125 142.175781 87.425781 142.109375 87.019531 142.019531 L 86.414062 141.890625 C 86.210938 141.855469 86.003906 141.839844 85.800781 141.808594 C 84.179688 141.550781 82.550781 141.519531 80.960938 141.589844 C 74.574219 141.910156 68.730469 144.902344 64.671875 149.542969 C 62.652344 151.835938 61.175781 154.488281 60.273438 157.453125 C 59.824219 158.9375 59.515625 160.488281 59.320312 162.097656 C 59.222656 162.898438 59.167969 163.714844 59.136719 164.539062 C 59.09375 165.363281 59.089844 166.195312 59.109375 167.039062 C 59.183594 170.40625 59.671875 173.871094 60.375 177.363281 C 60.71875 179.113281 61.136719 180.867188 61.574219 182.636719 C 62.019531 184.402344 62.507812 186.179688 62.980469 187.992188 C 61.734375 186.59375 60.613281 185.09375 59.574219 183.53125 C 58.527344 181.972656 57.585938 180.339844 56.726562 178.644531 C 55.019531 175.257812 53.699219 171.609375 52.960938 167.722656 C 52.785156 166.753906 52.640625 165.769531 52.535156 164.769531 C 52.4375 163.773438 52.394531 162.761719 52.390625 161.742188 C 52.378906 159.707031 52.582031 157.632812 53.042969 155.582031 C 53.496094 153.53125 54.214844 151.507812 55.179688 149.605469 C 55.417969 149.125 55.695312 148.667969 55.953125 148.203125 C 56.21875 147.738281 56.523438 147.300781 56.808594 146.851562 C 57.417969 145.976562 58.0625 145.128906 58.761719 144.335938 C 61.539062 141.183594 65.046875 138.648438 68.953125 137.101562 C 70.90625 136.332031 72.933594 135.75 75.003906 135.503906 C 77.066406 135.226562 79.152344 135.160156 81.195312 135.414062 C 81.707031 135.445312 82.214844 135.539062 82.71875 135.632812 C 83.222656 135.730469 83.726562 135.792969 84.21875 135.9375 L 85.691406 136.324219 C 86.175781 136.46875 86.648438 136.65625 87.125 136.824219 C 87.359375 136.910156 87.597656 136.988281 87.832031 137.085938 L 88.519531 137.394531 C 88.972656 137.601562 89.441406 137.792969 89.871094 138.023438 C 90.738281 138.480469 91.546875 138.949219 92.339844 139.417969 C 93.125 139.898438 93.894531 140.359375 94.65625 140.808594 C 95.421875 141.261719 96.1875 141.671875 96.96875 142.042969 C 98.535156 142.792969 100.203125 143.292969 102.085938 143.289062 " fill-opacity="1" fill-rule="nonzero"/></g><path fill="rgb(0%, 29.019165%, 67.83905%)" d="M 126.382812 220.539062 C 127.035156 220.972656 127.402344 221.457031 127.402344 221.964844 C 127.402344 223.777344 122.835938 225.242188 117.199219 225.242188 C 114.882812 225.242188 112.746094 224.992188 111.03125 224.574219 C 112.6875 225.667969 116.175781 226.425781 120.21875 226.425781 C 125.851562 226.425781 130.421875 224.957031 130.421875 223.148438 C 130.421875 222.082031 128.835938 221.136719 126.382812 220.539062 " fill-opacity="1" fill-rule="nonzero"/><path fill="rgb(0%, 29.019165%, 67.83905%)" d="M 125.492188 227.652344 C 126.003906 228.082031 126.292969 228.566406 126.292969 229.078125 C 126.292969 230.886719 122.699219 232.355469 118.269531 232.355469 C 116.445312 232.355469 114.765625 232.105469 113.417969 231.6875 C 114.71875 232.78125 117.464844 233.535156 120.640625 233.535156 C 125.074219 233.535156 128.664062 232.070312 128.664062 230.261719 C 128.664062 229.195312 127.417969 228.25 125.492188 227.652344 " fill-opacity="1" fill-rule="nonzero"/><g clip-path="url(#id2)"><path fill="rgb(0%, 29.019165%, 67.83905%)" d="M 124.625 234.265625 C 124.976562 234.695312 125.179688 235.179688 125.179688 235.691406 C 125.179688 237.5 122.691406 238.96875 119.621094 238.96875 C 118.363281 238.96875 117.199219 238.71875 116.265625 238.300781 C 117.164062 239.394531 119.066406 240.148438 121.265625 240.148438 C 124.335938 240.148438 126.820312 238.683594 126.820312 236.875 C 126.820312 235.808594 125.960938 234.863281 124.625 234.265625 " fill-opacity="1" fill-rule="nonzero"/></g><path fill="rgb(0%, 29.019165%, 67.83905%)" d="M 127.941406 213.332031 C 128.75 213.839844 129.207031 214.40625 129.207031 215.011719 C 129.207031 217.136719 123.519531 218.863281 116.507812 218.863281 C 113.621094 218.863281 110.960938 218.570312 108.832031 218.078125 C 110.886719 219.363281 115.234375 220.253906 120.261719 220.253906 C 127.277344 220.253906 132.964844 218.527344 132.964844 216.398438 C 132.964844 215.148438 130.992188 214.035156 127.941406 213.332031 " fill-opacity="1" fill-rule="nonzero"/><path fill="rgb(0%, 29.019165%, 67.83905%)" d="M 129.660156 204.847656 C 130.652344 205.445312 131.207031 206.117188 131.207031 206.824219 C 131.207031 209.328125 124.273438 211.359375 115.714844 211.359375 C 112.195312 211.359375 108.953125 211.015625 106.351562 210.433594 C 108.859375 211.949219 114.164062 212.992188 120.296875 212.992188 C 128.855469 212.992188 135.789062 210.964844 135.789062 208.460938 C 135.789062 206.984375 133.386719 205.675781 129.660156 204.847656 " fill-opacity="1" fill-rule="nonzero"/><path fill="rgb(0%, 29.019165%, 67.83905%)" d="M 131.6875 194.871094 C 132.855469 195.574219 133.515625 196.363281 133.515625 197.195312 C 133.515625 200.140625 125.316406 202.527344 115.203125 202.527344 C 111.039062 202.527344 107.207031 202.125 104.132812 201.445312 C 107.097656 203.222656 113.367188 204.453125 120.617188 204.453125 C 130.730469 204.453125 138.929688 202.0625 138.929688 199.117188 C 138.929688 197.386719 136.089844 195.84375 131.6875 194.871094 " fill-opacity="1" fill-rule="nonzero"/><path fill="rgb(0%, 29.019165%, 67.83905%)" d="M 93.132812 148.3125 C 94.121094 148.320312 95.023438 148.035156 95.898438 147.691406 C 96.769531 147.347656 97.609375 146.917969 98.441406 146.472656 C 100.09375 145.5625 101.703125 144.554688 103.3125 143.519531 C 104.929688 142.492188 106.527344 141.429688 108.214844 140.398438 C 109.058594 139.871094 109.917969 139.367188 110.902344 138.871094 C 111.425781 138.613281 111.886719 138.417969 112.378906 138.203125 C 112.871094 138 113.363281 137.796875 113.871094 137.628906 C 115.890625 136.921875 118.027344 136.394531 120.246094 136.199219 C 122.460938 135.984375 124.746094 136.085938 126.988281 136.527344 C 129.230469 136.972656 131.40625 137.78125 133.414062 138.851562 C 135.421875 139.933594 137.25 141.285156 138.871094 142.800781 C 139.277344 143.175781 139.667969 143.566406 140.046875 143.964844 L 140.613281 144.570312 L 141.1875 145.222656 C 141.929688 146.117188 142.621094 147.082031 143.21875 148.109375 C 144.417969 150.160156 145.253906 152.460938 145.644531 154.777344 C 146.042969 157.097656 146.015625 159.414062 145.730469 161.605469 C 145.414062 163.796875 144.886719 165.882812 144.167969 167.851562 C 142.757812 171.800781 140.777344 175.335938 138.585938 178.636719 C 138.039062 179.464844 137.464844 180.269531 136.894531 181.074219 C 136.308594 181.867188 135.726562 182.660156 135.121094 183.4375 C 133.914062 184.992188 132.667969 186.507812 131.347656 187.992188 C 131.851562 186.066406 132.464844 184.191406 133.089844 182.34375 L 134.972656 176.84375 C 136.195312 173.214844 137.332031 169.625 138.027344 166.121094 C 138.714844 162.621094 138.890625 159.207031 138.191406 156.25 C 137.832031 154.773438 137.273438 153.402344 136.496094 152.132812 C 136.105469 151.5 135.664062 150.882812 135.167969 150.296875 L 134.785156 149.859375 L 134.363281 149.402344 C 134.078125 149.101562 133.785156 148.808594 133.488281 148.523438 C 132.898438 147.949219 132.28125 147.417969 131.640625 146.929688 C 131 146.4375 130.347656 145.976562 129.660156 145.578125 C 128.296875 144.773438 126.851562 144.132812 125.328125 143.714844 C 124.570312 143.5 123.789062 143.339844 122.996094 143.230469 C 122.203125 143.113281 121.390625 143.042969 120.570312 143.039062 C 118.929688 143.03125 117.242188 143.175781 115.550781 143.535156 C 115.128906 143.625 114.707031 143.726562 114.277344 143.824219 C 113.863281 143.929688 113.410156 144.046875 113.039062 144.152344 C 112.238281 144.390625 111.351562 144.722656 110.460938 145.039062 C 108.671875 145.699219 106.828125 146.382812 104.949219 147.003906 C 103.066406 147.613281 101.144531 148.179688 99.148438 148.539062 C 98.15625 148.71875 97.136719 148.839844 96.113281 148.855469 C 95.097656 148.855469 94.027344 148.765625 93.132812 148.3125 " fill-opacity="1" fill-rule="nonzero"/><g clip-path="url(#id3)"><path fill="rgb(16.079712%, 67.059326%, 88.62915%)" d="M 102.085938 195.710938 C 99.523438 196.675781 97.28125 198.0625 95.378906 199.710938 C 93.484375 201.371094 91.972656 203.308594 90.84375 205.433594 C 89.726562 207.566406 88.964844 209.863281 88.484375 212.261719 C 88.386719 212.867188 88.25 213.460938 88.175781 214.074219 L 88.046875 214.996094 L 87.921875 216.003906 C 87.742188 217.347656 87.539062 218.691406 87.328125 220.039062 C 87.09375 221.382812 86.847656 222.726562 86.574219 224.070312 C 86.277344 225.410156 85.976562 226.757812 85.605469 228.101562 C 85.230469 229.4375 84.835938 230.785156 84.328125 232.121094 C 83.832031 233.460938 83.261719 234.796875 82.488281 236.125 C 82.105469 236.792969 81.648438 237.453125 81.082031 238.101562 C 80.792969 238.425781 80.476562 238.746094 80.09375 239.050781 C 79.71875 239.351562 79.269531 239.632812 78.742188 239.839844 C 78.222656 240.046875 77.621094 240.167969 77.03125 240.144531 C 76.4375 240.128906 75.894531 239.96875 75.4375 239.753906 C 74.519531 239.316406 73.910156 238.714844 73.398438 238.125 C 72.398438 236.914062 71.757812 235.644531 71.214844 234.355469 C 70.679688 233.0625 70.257812 231.75 69.941406 230.40625 C 70.820312 231.472656 71.667969 232.527344 72.546875 233.519531 C 73.425781 234.503906 74.34375 235.453125 75.289062 236.097656 C 75.75 236.417969 76.230469 236.65625 76.574219 236.6875 C 76.929688 236.71875 77.007812 236.625 77.171875 236.480469 C 77.253906 236.40625 77.359375 236.292969 77.476562 236.140625 C 77.597656 235.996094 77.722656 235.8125 77.84375 235.601562 C 78.085938 235.183594 78.3125 234.675781 78.527344 234.144531 C 78.738281 233.605469 78.925781 233.03125 79.097656 232.441406 C 79.273438 231.851562 79.441406 231.25 79.589844 230.636719 C 79.878906 229.40625 80.167969 228.148438 80.40625 226.871094 C 80.652344 225.597656 80.898438 224.3125 81.109375 223.015625 C 81.347656 221.722656 81.5625 220.417969 81.773438 219.109375 C 82.003906 217.804688 82.210938 216.492188 82.429688 215.179688 L 82.601562 214.195312 L 82.804688 213.128906 C 82.929688 212.414062 83.117188 211.699219 83.308594 210.996094 C 84.097656 208.171875 85.351562 205.410156 87.144531 203.023438 C 88.945312 200.640625 91.273438 198.671875 93.878906 197.398438 C 95.179688 196.761719 96.539062 196.289062 97.921875 195.996094 C 99.304688 195.707031 100.710938 195.5625 102.085938 195.710938 " fill-opacity="1" fill-rule="nonzero"/></g><g fill="rgb(0%, 0%, 0%)" fill-opacity="1"><g transform="translate(162.669357, 192.881276)"><g><path d="M 18.765625 0 L 12.8125 0 L 8.96875 -7.453125 L 7.40625 -6.515625 L 7.40625 0 L 2.109375 0 L 2.109375 -19.5 L 7.40625 -19.5 L 7.40625 -11.03125 C 7.664062 -11.550781 8.203125 -12.378906 9.015625 -13.515625 L 13.109375 -19.5 L 18.875 -19.5 L 12.71875 -10.765625 Z M 18.765625 0 "/></g></g></g><g fill="rgb(0%, 0%, 0%)" fill-opacity="1"><g transform="translate(184.409193, 192.881276)"><g><path d="M 20.34375 -9.78125 C 20.34375 -6.5 19.535156 -4.003906 17.921875 -2.296875 C 16.316406 -0.585938 13.96875 0.265625 10.875 0.265625 C 7.8125 0.265625 5.460938 -0.585938 3.828125 -2.296875 C 2.203125 -4.015625 1.390625 -6.515625 1.390625 -9.796875 C 1.390625 -13.046875 2.195312 -15.523438 3.8125 -17.234375 C 5.4375 -18.941406 7.796875 -19.796875 10.890625 -19.796875 C 13.992188 -19.796875 16.34375 -18.945312 17.9375 -17.25 C 19.539062 -15.550781 20.34375 -13.0625 20.34375 -9.78125 Z M 6.9375 -9.78125 C 6.9375 -6.007812 8.25 -4.125 10.875 -4.125 C 12.207031 -4.125 13.191406 -4.582031 13.828125 -5.5 C 14.472656 -6.414062 14.796875 -7.84375 14.796875 -9.78125 C 14.796875 -11.726562 14.46875 -13.164062 13.8125 -14.09375 C 13.164062 -15.019531 12.191406 -15.484375 10.890625 -15.484375 C 8.253906 -15.484375 6.9375 -13.582031 6.9375 -9.78125 Z M 6.9375 -9.78125 "/></g></g></g><g fill="rgb(0%, 0%, 0%)" fill-opacity="1"><g transform="translate(209.149435, 192.881276)"><g><path d="M 10.703125 0 L 5.4375 0 L 5.4375 -15.1875 L 0.6875 -15.1875 L 0.6875 -19.5 L 15.453125 -19.5 L 15.453125 -15.1875 L 10.703125 -15.1875 Z M 10.703125 0 "/></g></g></g><g fill="rgb(0%, 0%, 0%)" fill-opacity="1"><g transform="translate(228.262241, 192.881276)"><g><path d="M 20.34375 -9.78125 C 20.34375 -6.5 19.535156 -4.003906 17.921875 -2.296875 C 16.316406 -0.585938 13.96875 0.265625 10.875 0.265625 C 7.8125 0.265625 5.460938 -0.585938 3.828125 -2.296875 C 2.203125 -4.015625 1.390625 -6.515625 1.390625 -9.796875 C 1.390625 -13.046875 2.195312 -15.523438 3.8125 -17.234375 C 5.4375 -18.941406 7.796875 -19.796875 10.890625 -19.796875 C 13.992188 -19.796875 16.34375 -18.945312 17.9375 -17.25 C 19.539062 -15.550781 20.34375 -13.0625 20.34375 -9.78125 Z M 6.9375 -9.78125 C 6.9375 -6.007812 8.25 -4.125 10.875 -4.125 C 12.207031 -4.125 13.191406 -4.582031 13.828125 -5.5 C 14.472656 -6.414062 14.796875 -7.84375 14.796875 -9.78125 C 14.796875 -11.726562 14.46875 -13.164062 13.8125 -14.09375 C 13.164062 -15.019531 12.191406 -15.484375 10.890625 -15.484375 C 8.253906 -15.484375 6.9375 -13.582031 6.9375 -9.78125 Z M 6.9375 -9.78125 "/></g></g></g><g fill="rgb(0%, 0%, 0%)" fill-opacity="1"><g transform="translate(253.002481, 192.881276)"><g><path d="M 23.171875 0 L 16.9375 0 L 15.0625 -8.5 C 14.976562 -8.851562 14.835938 -9.554688 14.640625 -10.609375 C 14.453125 -11.671875 14.316406 -12.554688 14.234375 -13.265625 C 14.160156 -12.691406 14.039062 -11.972656 13.875 -11.109375 C 13.71875 -10.253906 13.5625 -9.46875 13.40625 -8.75 C 13.25 -8.03125 12.601562 -5.113281 11.46875 0 L 5.234375 0 L 0.40625 -19.5 L 5.5 -19.5 L 7.609375 -9.71875 C 8.085938 -7.5625 8.421875 -5.84375 8.609375 -4.5625 C 8.722656 -5.46875 8.925781 -6.695312 9.21875 -8.25 C 9.519531 -9.8125 9.800781 -11.101562 10.0625 -12.125 L 11.78125 -19.5 L 16.65625 -19.5 L 18.328125 -12.125 C 18.609375 -10.9375 18.894531 -9.566406 19.1875 -8.015625 C 19.476562 -6.472656 19.675781 -5.320312 19.78125 -4.5625 C 19.894531 -5.550781 20.207031 -7.265625 20.71875 -9.703125 L 22.890625 -19.5 L 27.96875 -19.5 Z M 23.171875 0 "/></g></g></g><g fill="rgb(0%, 0%, 0%)" fill-opacity="1"><g transform="translate(284.356962, 192.881276)"><g><path d="M 14.859375 -5.921875 C 14.859375 -4.710938 14.550781 -3.640625 13.9375 -2.703125 C 13.320312 -1.765625 12.4375 -1.035156 11.28125 -0.515625 C 10.125 0.00390625 8.769531 0.265625 7.21875 0.265625 C 5.914062 0.265625 4.820312 0.175781 3.9375 0 C 3.0625 -0.1875 2.148438 -0.503906 1.203125 -0.953125 L 1.203125 -5.65625 C 2.203125 -5.132812 3.242188 -4.726562 4.328125 -4.4375 C 5.421875 -4.15625 6.421875 -4.015625 7.328125 -4.015625 C 8.109375 -4.015625 8.679688 -4.148438 9.046875 -4.421875 C 9.410156 -4.691406 9.59375 -5.039062 9.59375 -5.46875 C 9.59375 -5.738281 9.519531 -5.972656 9.375 -6.171875 C 9.226562 -6.367188 8.988281 -6.566406 8.65625 -6.765625 C 8.332031 -6.972656 7.46875 -7.394531 6.0625 -8.03125 C 4.789062 -8.601562 3.835938 -9.160156 3.203125 -9.703125 C 2.566406 -10.242188 2.09375 -10.863281 1.78125 -11.5625 C 1.476562 -12.269531 1.328125 -13.101562 1.328125 -14.0625 C 1.328125 -15.863281 1.976562 -17.265625 3.28125 -18.265625 C 4.59375 -19.273438 6.394531 -19.78125 8.6875 -19.78125 C 10.695312 -19.78125 12.753906 -19.3125 14.859375 -18.375 L 13.25 -14.3125 C 11.425781 -15.144531 9.847656 -15.5625 8.515625 -15.5625 C 7.835938 -15.5625 7.34375 -15.441406 7.03125 -15.203125 C 6.71875 -14.960938 6.5625 -14.664062 6.5625 -14.3125 C 6.5625 -13.925781 6.757812 -13.582031 7.15625 -13.28125 C 7.550781 -12.976562 8.625 -12.425781 10.375 -11.625 C 12.050781 -10.875 13.21875 -10.0625 13.875 -9.1875 C 14.53125 -8.320312 14.859375 -7.234375 14.859375 -5.921875 Z M 14.859375 -5.921875 "/></g></g></g><g fill="rgb(0%, 0%, 0%)" fill-opacity="1"><g transform="translate(303.096378, 192.881276)"><g><path d="M 10.78125 -15.453125 C 9.53125 -15.453125 8.550781 -14.9375 7.84375 -13.90625 C 7.144531 -12.882812 6.796875 -11.472656 6.796875 -9.671875 C 6.796875 -5.921875 8.222656 -4.046875 11.078125 -4.046875 C 11.941406 -4.046875 12.773438 -4.164062 13.578125 -4.40625 C 14.390625 -4.644531 15.207031 -4.929688 16.03125 -5.265625 L 16.03125 -0.8125 C 14.40625 -0.09375 12.566406 0.265625 10.515625 0.265625 C 7.566406 0.265625 5.304688 -0.585938 3.734375 -2.296875 C 2.171875 -4.003906 1.390625 -6.472656 1.390625 -9.703125 C 1.390625 -11.710938 1.769531 -13.484375 2.53125 -15.015625 C 3.289062 -16.546875 4.382812 -17.722656 5.8125 -18.546875 C 7.238281 -19.367188 8.914062 -19.78125 10.84375 -19.78125 C 12.945312 -19.78125 14.960938 -19.320312 16.890625 -18.40625 L 15.265625 -14.25 C 14.546875 -14.59375 13.828125 -14.878906 13.109375 -15.109375 C 12.390625 -15.335938 11.613281 -15.453125 10.78125 -15.453125 Z M 10.78125 -15.453125 "/></g></g></g><g fill="rgb(0%, 0%, 0%)" fill-opacity="1"><g transform="translate(323.796069, 192.881276)"><g><path d="M 9.0625 -12.265625 L 12.421875 -19.5 L 18.140625 -19.5 L 11.71875 -7.609375 L 11.71875 0 L 6.421875 0 L 6.421875 -7.453125 L 0 -19.5 L 5.734375 -19.5 Z M 9.0625 -12.265625 "/></g></g></g><g fill="rgb(0%, 0%, 0%)" fill-opacity="1"><g transform="translate(235.897717, 210.188208)"><g><path d="M 1.078125 -8.1875 L 4.4375 -8.1875 C 5.65625 -8.1875 6.664062 -7.800781 7.46875 -7.03125 C 8.269531 -6.257812 8.671875 -5.28125 8.671875 -4.09375 C 8.671875 -2.90625 8.269531 -1.925781 7.46875 -1.15625 C 6.664062 -0.382812 5.644531 0 4.40625 0 L 1.078125 0 Z M 2.453125 -6.953125 L 2.453125 -1.234375 L 4.46875 -1.234375 C 5.269531 -1.234375 5.9375 -1.5 6.46875 -2.03125 C 7.007812 -2.570312 7.28125 -3.253906 7.28125 -4.078125 C 7.28125 -4.910156 7.003906 -5.597656 6.453125 -6.140625 C 5.898438 -6.679688 5.21875 -6.953125 4.40625 -6.953125 Z M 2.453125 -6.953125 "/></g></g></g><g fill="rgb(0%, 0%, 0%)" fill-opacity="1"><g transform="translate(244.96996, 210.188208)"><g><path d="M 6.921875 -6.953125 L 2.453125 -6.953125 L 2.453125 -4.734375 L 6.453125 -4.734375 L 6.453125 -3.5 L 2.453125 -3.5 L 2.453125 -1.234375 L 7.0625 -1.234375 L 7.0625 0 L 1.078125 0 L 1.078125 -8.1875 L 6.921875 -8.1875 Z M 6.921875 -6.953125 "/></g></g></g><g fill="rgb(0%, 0%, 0%)" fill-opacity="1"><g transform="translate(252.649172, 210.188208)"><g><path d="M 8.1875 0 L 6.828125 0 L 2.453125 -5.875 L 2.453125 0 L 1.078125 0 L 1.078125 -8.1875 L 2.4375 -8.1875 L 6.828125 -2.3125 L 6.828125 -8.1875 L 8.1875 -8.1875 Z M 8.1875 0 "/></g></g></g><g fill="rgb(0%, 0%, 0%)" fill-opacity="1"><g transform="translate(261.920421, 210.188208)"><g><path d="M 6.671875 -6.953125 L 4.078125 -6.953125 L 4.078125 0 L 2.6875 0 L 2.6875 -6.953125 L 0.109375 -6.953125 L 0.109375 -8.1875 L 6.671875 -8.1875 Z M 6.671875 -6.953125 "/></g></g></g></svg>