<svg height="512pt" viewBox="-66 0 512 512" width="512pt" xmlns="http://www.w3.org/2000/svg"><path d="m99.167969 247.550781c0 47.222657-41.320313 74.375-41.320313 140.488281h132.226563v-140.488281zm0 0" fill="#4b3f4e"/><path d="m347.066406 384.628906-107.410156-37.910156h-99.167969l-107.40625 37.910156c-19.824219 6.996094-33.082031 25.730469-33.082031 46.753906v55.824219c0 13.691407 11.101562 24.792969 24.792969 24.792969h330.5625c13.691406 0 24.789062-11.101562 24.789062-24.792969v-55.824219c0-21.019531-13.253906-39.757812-33.078125-46.753906zm0 0" fill="#dbeaff"/><path d="m140.488281 280.605469h99.167969v190.074219h-99.167969zm0 0" fill="#e3aa75"/><path d="m140.488281 315.378906c14.277344 9.332032 31.292969 14.8125 49.585938 14.8125s35.308593-5.476562 49.582031-14.8125v-34.773437h-99.167969zm0 0" fill="#d29b6e"/><path d="m301.636719 164.910156-4.128907-107.433594h-214.867187v107.433594h-4.132813c-11.410156 0-20.660156 9.25-20.660156 20.660156 0 11.410157 9.25 20.660157 20.660156 20.660157h4.550782c4.230468 55.457031 50.472656 99.167969 107.015625 99.167969s102.78125-43.710938 107.015625-99.167969h4.546875c11.410156 0 20.660156-9.25 20.660156-20.660157 0-11.410156-9.25-20.660156-20.660156-20.660156zm0 0" fill="#f5b97d"/><path d="m115.695312 197.964844v-28.304688c0-6.539062 2.59375-12.738281 7.175782-17.410156 18.035156-18.398438 39.957031-48.265625 51.242187-94.773438h-91.472656l-4.132813 107.433594c-12.113281 0-21.789062 10.425782-20.554687 22.789063 1.078125 10.753906 10.925781 18.53125 21.734375 18.53125h3.371094c4.230468 55.460937 50.472656 99.167969 107.015625 99.167969 5.652343 0 11.164062-.550782 16.578125-1.390626-51.492188-7.949218-90.957032-52.324218-90.957032-106.042968zm0 0" fill="#e3aa75"/><path d="m148.753906 164.910156h-16.527344c-4.570312 0-8.265624-3.699218-8.265624-8.265625 0-4.5625 3.695312-8.261719 8.265624-8.261719h16.527344c4.566406 0 8.261719 3.699219 8.261719 8.261719 0 4.566407-3.695313 8.265625-8.261719 8.265625zm0 0" fill="#64505a"/><path d="m247.921875 164.910156h-16.527344c-4.570312 0-8.265625-3.699218-8.265625-8.265625 0-4.5625 3.695313-8.261719 8.265625-8.261719h16.527344c4.566406 0 8.261719 3.699219 8.261719 8.261719 0 4.566407-3.695313 8.265625-8.261719 8.265625zm0 0" fill="#64505a"/><path d="m115.695312 512h-66.109374c-4.566407 0-8.265626-3.699219-8.265626-8.265625v-24.789063c0-4.566406 3.699219-8.265624 8.265626-8.265624h66.109374c4.566407 0 8.265626 3.699218 8.265626 8.265624v24.789063c0 4.566406-3.699219 8.265625-8.265626 8.265625zm0 0" fill="#dad8db"/><path d="m140.488281 197.964844c-4.566406 0-8.261719-3.695313-8.261719-8.261719v-8.265625c0-4.566406 3.695313-8.261719 8.261719-8.261719 4.570313 0 8.265625 3.695313 8.265625 8.261719v8.265625c0 4.566406-3.699218 8.261719-8.265625 8.261719zm0 0" fill="#4b3f4e"/><path d="m239.65625 197.964844c-4.566406 0-8.261719-3.695313-8.261719-8.261719v-8.265625c0-4.566406 3.695313-8.261719 8.261719-8.261719 4.570312 0 8.265625 3.695313 8.265625 8.261719v8.265625c0 4.566406-3.695313 8.261719-8.265625 8.261719zm0 0" fill="#4b3f4e"/><path d="m115.695312 214.492188v24.792968c0 41.078125 33.300782 74.378906 74.378907 74.378906s74.375-33.300781 74.375-74.378906v-24.792968zm0 0" fill="#edebed"/><path d="m157.015625 264.078125v-8.265625c0-9.125 7.402344-16.527344 16.53125-16.527344h90.902344v-24.792968h-148.753907v24.792968c0 35.761719 25.222657 65.625 58.855469 72.761719-10.9375-12.953125-17.535156-29.691406-17.535156-47.96875zm0 0" fill="#dbd9dc"/><path d="m297.507812 222.757812h-214.867187c-4.566406 0-8.265625-3.699218-8.265625-8.265624 0-4.5625 3.699219-8.261719 8.265625-8.261719h214.867187c4.5625 0 8.261719 3.699219 8.261719 8.261719 0 4.566406-3.699219 8.265624-8.261719 8.265624zm0 0" fill="#edebed"/><path d="m190.050781 0c-27.578125 0-53.222656 8.0625-74.921875 21.789062l33.257813 50.519532s84.75 13.328125 144.160156 86.835937c4.765625 5.894531 9.089844 5.765625 9.089844 5.765625 11.410156 0 20.660156 9.25 20.660156 20.660156 0 .796876-.054687 1.558594-.140625 2.332032v.019531c5.347656-14.839844 8.382812-30.75 8.382812-47.433594 0-77.589843-62.898437-140.488281-140.488281-140.488281zm0 0" fill="#64505a"/><path d="m57.847656 185.570312c0-10.886718 8.449219-19.710937 19.128906-20.507812h.011719c3.761719 0 7.398438-1.402344 10.320313-3.769531 13.640625-11.039063 73.773437-51.742188 77.605468-159.289063-65.566406 11.871094-115.328124 69.125-115.328124 138.113282 0 16.683593 3.003906 32.59375 8.355468 47.433593-.0625-.660156-.09375-1.300781-.09375-1.980469zm0 0" fill="#4b3f4e"/><path d="m276.257812 340.59375-36.601562-17.261719-44.855469 118.351563c-1.652343 4.347656-7.804687 4.347656-9.453125 0l-44.859375-118.351563-36.597656 17.261719c-6.703125 3.164062-8.820313 11.679688-4.371094 17.609375l16.175781 21.574219-13.960937 20.941406c-1.59375 2.390625-1.832031 5.4375-.628906 8.046875l47.648437 103.234375h82.640625l47.644531-103.234375c1.203126-2.609375.96875-5.65625-.625-8.046875l-13.964843-20.941406 16.179687-21.574219c4.445313-5.929687 2.332032-14.445313-4.371094-17.609375zm0 0" fill="#c3ddff"/><path d="m181.808594 512h16.527344v-79.652344l-3.535157 9.335938c-1.652343 4.347656-7.804687 4.347656-9.453125 0l-3.539062-9.335938zm0 0" fill="#a4ccff"/><path d="m115.695312 512h-66.109374c-4.566407 0-8.265626-3.699219-8.265626-8.265625v-8.261719h82.640626v8.261719c0 4.566406-3.699219 8.265625-8.265626 8.265625zm0 0" fill="#c8c5c9"/><path d="m82.640625 478.945312c-4.566406 0-8.265625-3.703124-8.265625-8.265624v-16.527344c0-4.5625 3.699219-8.265625 8.265625-8.265625 4.5625 0 8.261719 3.703125 8.261719 8.265625v16.527344c0 4.5625-3.699219 8.265624-8.261719 8.265624zm0 0" fill="#fff"/></svg>